<?xml version="1.0" encoding="UTF-8" standalone="no"?>
<!-- Created with Inkscape (http://www.inkscape.org/) -->

<svg
   version="1.1"
   id="svg1"
   width="450"
   height="450"
   viewBox="0 0 450 450"
   xmlns="http://www.w3.org/2000/svg"
   xmlns:svg="http://www.w3.org/2000/svg">
  <defs
     id="defs1" />
  <g
     id="g12">
    <path
       style="fill:#6db639"
       d="m 351.41517,261.82038 c -3.08668,-1.18447 -33.21254,0.5672 -34.4771,1.83176 -0.82209,0.82209 -1.2,5.72963 -1.2,15.58333 0,8.14452 -0.39191,14.23875 -0.90354,14.05 -0.49695,-0.18333 -16.26653,-14.28333 -35.0435,-31.33333 -18.77698,-17.05 -34.55116,-31.14359 -35.05374,-31.31909 -0.50258,-0.1755 -11.8455,9.97943 -25.2065,22.56651 -13.361,12.58709 -48.99206,46.18103 -79.18015,74.65322 -30.18809,28.47218 -55.456961,51.98615 -56.153051,52.25327 -5.1781,1.98702 -25.68115,-17.76561 -22.12833,-21.31843 0.31425,-0.31426 2.83308,0.24192 5.59738,1.23595 2.76431,0.99403 5.29441,1.53892 5.62246,1.21088 0.32804,-0.32805 -0.13013,-2.00148 -1.01816,-3.71875 -2.00277,-3.87292 -1.1534,-5.43767 2.54964,-4.69706 4.38683,0.87737 4.36175,-0.91524 -0.0625,-4.47069 -2.21098,-1.7768 -4.01997,-3.788 -4.01997,-4.46934 0,-0.73783 2.12309,-1.52518 5.25,-1.94696 2.8875,-0.3895 5.63797,-0.93947 6.11216,-1.22218 0.47419,-0.2827 -1.67187,-2.81875 -4.76902,-5.63567 -4.00243,-3.64027 -5.81422,-6.1005 -6.264,-8.50585 l -0.63282,-3.3842 5.65184,0.70615 c 3.10851,0.38838 5.65184,0.39568 5.65184,0.0162 0,-0.37947 -1.34724,-2.22436 -2.99386,-4.09976 -3.84362,-4.37763 -7.40983,-11.35673 -6.33716,-12.40184 0.45706,-0.44531 3.08102,-0.36926 5.83102,0.16901 7.07951,1.38572 22.260061,1.51856 23.572341,0.20628 0.77567,-0.77567 0.14036,-1.7264 -2.245301,-3.36007 -8.54382,-5.8507 -16.93855,-16.36012 -15.25023,-19.09187 0.41639,-0.67374 3.05308,-0.83184 7.28782,-0.43697 9.950081,0.92778 10.478541,0.0536 4.91221,-8.12556 -4.56967,-6.71469 -7.75338,-14.66998 -6.40897,-16.01439 0.37857,-0.37857 3.67205,0.28177 7.31884,1.46743 3.646791,1.18566 7.040901,1.90212 7.542471,1.59213 0.50156,-0.30998 0.61509,-2.32066 0.25227,-4.46816 -0.63514,-3.75936 -0.54402,-3.92769 2.45025,-4.52654 1.71045,-0.34209 3.37974,-1.05856 3.70951,-1.59215 0.32978,-0.53359 -1.87841,-3.51297 -4.90709,-6.62084 -10.553421,-10.82937 -10.323611,-13.20758 1.19994,-12.41774 9.73954,0.66757 9.75265,0.63418 4.06594,-10.35512 -2.2,-4.25139 -4,-8.32278 -4,-9.04753 0,-0.72476 1.9125,-2.66262 4.25,-4.30636 7.02972,-4.94335 6.78917,-4.41514 4.61572,-10.1352 l -1.97035,-5.18555 3.05774,-3.15479 c 2.59842,-2.68089 3.87958,-6.14006 8.52879,-23.02806 5.50763,-20.00613 6.82406,-23.32036 7.89286,-19.87098 1.30398,4.20838 7.62524,34.38182 7.62524,36.39774 0,1.28146 1.69755,3.73568 4.1079,5.93895 3.732,3.41139 4.04328,4.06423 3.40183,7.13448 -0.38833,1.85872 -1.37107,4.42834 -2.18388,5.71028 -1.62754,2.56692 -1.14362,5.16921 0.96126,5.16921 2.3688,0 11.18016,2.88997 13.10688,4.29882 2.23228,1.63229 1.54966,3.31828 -4.63119,11.43852 -4.89477,6.43062 -4.52963,8.26266 1.6468,8.26266 5.27947,0 6.3548,1.18444 4.14174,4.56199 -1.46628,2.23782 -1.47112,2.53156 -0.0507,3.07664 2.54194,0.97543 19.41398,-0.15328 20.64159,-1.38089 0.834,-0.834 -0.33365,-2.65526 -4.50838,-7.03203 -3.09864,-3.24859 -5.63389,-6.37022 -5.63389,-6.93695 0,-0.56673 2.8125,-1.33748 6.25,-1.71279 11.17677,-1.22027 13.75,-1.80458 13.75,-3.12221 0,-0.70985 -1.6875,-2.32852 -3.75,-3.59705 -6.49574,-3.99516 -12.25,-9.89317 -12.25,-12.55602 0,-2.37977 0.14584,-2.42637 5.5,-1.75741 6.54132,0.81728 6.79109,0.19361 2.44952,-6.11664 -3.60175,-5.23496 -6.89667,-12.21554 -6.92756,-14.67663 -0.0271,-2.15778 3.36426,-2.28712 10.47804,-0.3996 6.41888,1.70314 7.5,1.26223 7.5,-3.05873 0,-3.47314 0.0629,-3.52808 3.25,-2.83927 6.939,1.49967 10.75,1.78722 10.75,0.81111 0,-0.5499 -2.28716,-3.96251 -5.08259,-7.58357 -2.82526,-3.65972 -4.93136,-7.36898 -4.74209,-8.35178 0.23182,-1.20376 1.77415,-2.04872 4.83259,-2.64753 8.33279,-1.63145 8.34428,-2.15409 0.31623,-14.38026 -6.56101,-9.99199 -8.87058,-15.15393 -7.42638,-16.59813 0.71275,-0.71275 3.49322,-0.36075 8.93869,1.1316 4.34728,1.19139 8.22706,2.16616 8.62174,2.16616 0.39468,0 0.42766,-1.7162 0.0733,-3.81377 -0.57721,-3.41652 -0.37805,-3.9351 1.91211,-4.97856 1.40603,-0.64064 2.55643,-1.52886 2.55643,-1.97382 0,-0.44497 -2.2337,-3.00915 -4.96379,-5.69818 -4.69012,-4.6196 -7.58222,-9.65633 -6.28789,-10.95066 0.32173,-0.32175 4.03498,-0.58501 8.25165,-0.58501 4.21667,0 7.92385,-0.25718 8.23819,-0.57152 0.31434,-0.31434 -0.76936,-3.528782 -2.40822,-7.143202 -1.63886,-3.61443 -3.05854,-8.37704 -3.15486,-10.58358 -0.16265,-3.72653 0.10941,-4.16305 3.82489,-6.1369 4.44335,-2.36052 4.61108,-3.20925 2.13815,-10.8189 -1.19465,-3.67616 -1.2721,-4.97428 -0.34155,-5.72516 6.40479,-5.16821 6.29608,-4.92327 12.21457,-27.52074 6.64017,-25.3528897 7.23132,-27.1637897 8.45902,-25.9128397 0.49273,0.50206 2.07331,6.7628397 3.51239,13.9128397 2.31366,11.49522 4.38634,20.41563 7.58793,32.65687 0.72145,2.75844 1.69341,3.91378 3.95614,4.70258 4.73079,1.64916 4.84115,2.98672 1.26405,15.32012 -0.34613,1.19345 0.69904,2.28471 3.61109,3.77033 5.00367,2.55268 5.09691,3.72279 1.09337,13.72117 -1.65267,4.12733 -2.75111,7.914792 -2.44099,8.416582 0.31013,0.50179 3.46231,0.91235 7.00485,0.91235 3.54254,0 6.44098,0.24293 6.44098,0.53984 0,1.12924 -4.38899,9.09207 -6.64429,12.05455 -2.877,3.77915 -2.94588,5.01939 -0.35571,6.40561 2.43157,1.30134 2.53567,3.25283 0.35135,6.58653 -2.57069,3.92336 -0.66705,4.47305 8.14865,2.35298 9.3363,-2.24527 12.50376,-2.42012 12.49023,-0.68951 -0.0204,2.61143 -5.2762,12.43929 -9.05359,16.92941 -5.40591,6.4259 -5.17111,7.96447 1.74796,11.45381 3.12654,1.57673 5.84437,3.37028 6.03964,3.98568 0.19526,0.61539 -2.13279,4.15398 -5.17345,7.86354 -3.04066,3.70956 -5.31371,7.09215 -5.05121,7.51688 0.2625,0.42473 3.40748,0.53702 6.98884,0.24955 l 6.51158,-0.52269 v 2.66829 c 0,3.72975 1.61879,3.9953 10.07331,1.65243 9.24115,-2.56085 8.93099,-2.58534 8.90473,0.7031 -0.0289,3.61769 -2.85798,9.67424 -7.12347,15.25 -5.74326,7.50749 -5.80447,7.18073 1.29004,6.88647 5.98617,-0.24829 6.37507,-0.12796 6.69413,2.07139 0.26045,1.79533 -1.22697,3.8329 -6.43577,8.81614 -6.26195,5.9908 -6.63682,6.58184 -4.95465,7.81187 1.00092,0.73189 4.25506,1.87569 7.23141,2.54177 2.97636,0.66608 5.65306,1.6018 5.94822,2.0794 0.29517,0.47759 -1.07537,2.65268 -3.04564,4.83353 -4.47615,4.95457 -4.55632,6.72635 -0.33231,7.34414 10.21743,1.49439 15.98288,-7.30533 16.30085,-7.58081 12.13641,-10.51404 93.17821,57.44555 23.12625,30.56434 z"
       id="path54"
       transform="translate(-16.075844,-7.0074202)" />
    <path
       style="fill:#275b1d"
       d="m 404.81199,373.39499 c -18.002,-16.06069 -51.11647,-46.24825 -52.23612,-47.61909 -0.94064,-1.15166 -1.25,-9.25843 -1.25,-32.75599 v -31.22557 l -8.89924,-8.3333 c -7.27621,-6.81348 -9.37357,-9.46767 -11.5,-14.55317 -1.43042,-3.42092 -2.60076,-6.96959 -2.60076,-7.88592 0,-1.72852 1.05284,-1.70953 12.25,0.22094 4.7822,0.82449 4.83389,-0.37064 0.28412,-6.56867 -3.6585,-4.98387 -7.73628,-13.51099 -6.87366,-14.37361 0.28089,-0.28088 2.88565,-0.26558 5.78836,0.034 3.18412,0.32863 5.53382,0.13023 5.92342,-0.50016 0.35517,-0.57467 -0.72281,-3.24643 -2.39551,-5.93725 -1.67271,-2.69081 -3.30464,-6.51529 -3.62653,-8.49883 -0.58197,-3.5863 -0.56084,-3.61137 3.78228,-4.4875 4.86811,-0.98204 4.85397,-0.92874 2.68901,-10.13618 -1.23684,-5.26022 -1.21343,-5.38601 1.34986,-7.25323 2.29109,-1.66895 3.25648,-4.51033 7.93314,-23.34906 2.92854,-11.79689 5.51343,-21.26008 5.74419,-21.02931 0.23076,0.23076 2.35475,9.54308 4.71998,20.69404 3.82565,18.03624 4.58856,20.50424 6.91062,22.35579 2.73107,2.17768 2.72886,3.12263 -0.0285,12.18689 -0.5804,1.9079 -0.1323,2.48304 2.93208,3.76342 1.98944,0.83124 3.61717,2.17084 3.61717,2.97688 0,0.80604 -1.14156,4.86617 -2.5368,9.02252 -1.39524,4.15635 -2.24489,8.02933 -1.8881,8.60662 0.37361,0.60452 3.11074,0.9078 6.45459,0.71518 3.19324,-0.18394 6.11922,-0.0211 6.50217,0.36184 0.97661,0.9766 -3.06409,7.23008 -6.58732,10.19469 -3.76206,3.16556 -3.73161,5.13676 0.10001,6.47247 l 3.04455,1.06133 -1.62965,3.15139 c -2.56208,4.95452 -0.64892,5.72852 6.37181,2.5778 3.25536,-1.46091 6.42506,-2.65621 7.04379,-2.65621 2.07197,0 1.15635,3.70568 -2.93576,11.88146 -2.23339,4.46218 -3.78624,8.55716 -3.45077,9.09996 0.33547,0.5428 2.01968,1.35221 3.74269,1.79869 1.72301,0.44647 3.30825,1.33826 3.52274,1.98173 0.21449,0.64348 -1.70528,3.40997 -4.26615,6.14775 -5.78339,6.18291 -5.71396,8.46401 0.27083,8.89791 3.96876,0.28773 4.24137,0.49864 4.24137,3.28138 0,4.07333 2.04314,4.55486 8.63047,2.03403 7.10649,-2.7195 7.54131,-2.67909 6.74668,0.62709 -1.12338,4.67401 -4.34077,10.25522 -8.53464,14.80503 -2.20847,2.39591 -3.72495,4.82617 -3.36994,5.40059 0.355,0.57441 3.78303,1.04438 7.61783,1.04438 9.6179,0 10.09476,2.36395 2.48728,12.33029 -2.00035,2.6206 -3.37209,5.19334 -3.04832,5.71722 0.32377,0.52387 3.14962,0.95744 6.27966,0.9635 3.13004,0.006 7.37454,0.28929 9.43223,0.62942 l 3.74124,0.61841 -2.24124,4.01309 c -1.23269,2.2072 -3.92875,5.13376 -5.99125,6.50347 -4.0522,2.69107 -4.61248,4.26391 -2.22477,6.24554 1.36343,1.13155 1.35304,1.45609 -0.098,3.05943 -2.40494,2.65742 -0.91341,3.91963 4.63175,3.91963 6.31415,0 6.3887,1.41082 0.36778,6.9607 -5.95317,5.48745 -5.39282,7.0393 2.54182,7.0393 3.31726,0 6.03138,0.38931 6.03138,0.86514 0,1.85977 -4.38076,6.28846 -8.09453,8.18308 -4.46304,2.27688 -5.05844,4.6243 -1.40547,5.54114 1.375,0.3451 2.5,1.14838 2.5,1.78507 0,1.14113 -9.10206,7.62557 -10.70384,7.62557 -0.45316,0 -3.96768,-2.80474 -7.81004,-6.23275 z"
       id="path52"
       transform="translate(-16.075844,-7.0074202)" />
    <path
       style="display:inline;fill:#34343b;fill-opacity:1;stroke-width:0.412201"
       d="m 2.2671063,449.31347 c 7.8989867,-5.63542 41.0174777,-17.16715 72.9596047,-25.40424 6.574608,-1.69544 13.738474,-3.63275 15.919703,-4.30515 l 3.965865,-1.22254 0.248999,-2.36884 c 0.13695,-1.30286 0.374724,-9.83865 0.52838,-18.96842 l 0.279382,-16.59958 37.3241,-35.13167 c 20.52825,-19.32241 47.53511,-44.75881 60.01523,-56.52533 22.09276,-20.82951 32.81659,-30.59566 34.70659,-31.60716 0.8375,-0.44822 1.18007,-0.28041 3.52389,1.72621 29.29923,25.08387 112.5485,99.17759 131.76795,117.27642 l 3.44909,3.24799 0.49803,19.06117 c 0.27392,10.48364 0.61662,19.17976 0.76156,19.32469 0.14494,0.14494 6.80856,1.79531 14.80803,3.6675 19.4755,4.55802 28.84628,7.04906 44.42909,11.81061 15.84109,4.84048 36.89315,13.22969 40.60181,16.17977 0.77201,0.61411 0.68034,0.63955 -1.4427,0.40035 -2.7162,-0.30602 -8.17045,-1.21131 -20.61006,-3.42079 -46.57361,-8.27229 -99.12065,-13.24674 -166.73537,-15.78425 -17.97785,-0.6747 -81.25183,-0.67462 -98.30997,1.2e-4 -44.43281,1.75754 -78.67927,4.55647 -114.798025,9.3823 -18.599233,2.48505 -29.276313,4.22724 -51.731245,8.44103 -3.740725,0.70197 -8.2852428,1.37209 -10.0989279,1.48918 l -3.2976092,0.21287 z M 254.62537,385.1761 c 0.50355,-0.10448 1.10798,-0.54951 1.34317,-0.98898 0.72689,-1.3582 0.9529,-6.52247 0.63641,-14.54151 l -0.3033,-7.6846 -2.12032,-0.21562 c -1.16618,-0.11859 -6.54621,-0.29445 -11.95563,-0.39079 l -9.8353,-0.17516 0.15225,11.67145 c 0.0837,6.4193 0.30481,11.82437 0.49126,12.01127 0.73609,0.73788 18.31613,0.9935 21.59146,0.31394 z m -29.44231,-0.18022 c 0.10392,-0.11336 0.3221,-5.53896 0.48485,-12.05689 l 0.29591,-11.85078 h -11.84533 -11.84533 l 0.20917,11.60946 c 0.19381,10.757 0.26623,11.65196 0.98626,12.18827 0.63052,0.46964 2.73368,0.55403 11.15131,0.44742 5.70582,-0.0723 10.45925,-0.22413 10.56316,-0.33748 z m 0.56341,-38.23166 c -0.14856,-4.25082 -0.27063,-9.63005 -0.27127,-11.95383 l -0.001,-4.22506 h -11.3357 -11.33553 v 5.70528 c 0,3.1379 -0.12171,8.51712 -0.27046,11.95383 l -0.27046,6.24855 h 11.87727 11.87726 z m 30.49305,7.19137 c 0.11323,-0.11323 0.23958,-4.82238 0.28079,-10.46479 0.0852,-11.67181 -0.0287,-12.17213 -2.91043,-12.78316 -1.92053,-0.40722 -17.2126,-0.40591 -18.74638,0.002 -2.03336,0.54025 -2.16538,1.28481 -2.3099,13.02644 l -0.13395,10.88326 11.80699,-0.22874 c 6.49385,-0.12581 11.89965,-0.32139 12.01288,-0.43462 z"
       id="path12" />
  </g>
</svg>
